<?xml version="1.0" encoding="UTF-8" standalone="no"?><!DOCTYPE svg PUBLIC "-//W3C//DTD SVG 1.1//EN" "http://www.w3.org/Graphics/SVG/1.1/DTD/svg11.dtd"><svg width="100%" height="100%" viewBox="0 0 1500 1500" version="1.1" xmlns="http://www.w3.org/2000/svg" xmlns:xlink="http://www.w3.org/1999/xlink" xml:space="preserve" xmlns:serif="http://www.serif.com/" style="fill-rule:evenodd;clip-rule:evenodd;stroke-linecap:round;stroke-linejoin:round;"><g><path d="M1500,6l0,1488c0,3.311 -2.689,6 -6,6l-1488,0c-3.311,0 -6,-2.689 -6,-6l0,-1488c0,-3.311 2.689,-6 6,-6l1488,0c3.311,0 6,2.689 6,6Z" style="fill:#3f75fe;"/><path d="M593.75,875c-69.034,0 -125,-55.966 -125,-125c0,-59.597 41.706,-109.45 97.522,-121.969c-2.469,-11.034 -3.772,-22.506 -3.772,-34.281c0,-86.294 69.956,-156.25 156.25,-156.25c75.603,0 138.666,53.697 153.131,125.031c1.037,-0.022 2.075,-0.031 3.119,-0.031c86.294,0 156.25,69.956 156.25,156.25c0,75.594 -53.681,138.647 -125,153.125m-62.5,-90.625l-93.75,-93.75m0,0l-93.75,93.75m93.75,-93.75l0,375" style="fill:none;fill-rule:nonzero;stroke:#fff;stroke-width:62.5px;"/></g></svg>